<?xml version="1.0" encoding="UTF-8"?>
<!DOCTYPE svg PUBLIC "-//W3C//DTD SVG 1.1//EN" "http://www.w3.org/Graphics/SVG/1.1/DTD/svg11.dtd">
<!-- Creator: CorelDRAW -->
<svg xmlns="http://www.w3.org/2000/svg" xml:space="preserve" width="2048px" height="2048px" style="shape-rendering:geometricPrecision; text-rendering:geometricPrecision; image-rendering:optimizeQuality; fill-rule:evenodd; clip-rule:evenodd"
viewBox="0 0 2048 2048"
 xmlns:xlink="http://www.w3.org/1999/xlink">
 <defs>
  <style type="text/css">
   <![CDATA[
    .fil4 {fill:none}
    .fil2 {fill:#212121}
    .fil1 {fill:black}
    .fil0 {fill:#212121;fill-rule:nonzero}
    .fil3 {fill:#66BB6A;fill-rule:nonzero}
   ]]>
  </style>
 </defs>
 <g id="Layer_x0020_1">
  <metadata id="CorelCorpID_0Corel-Layer"/>
  <path class="fil0" d="M1001.46 1381.98c-4.46693,-2.70473 -9.33544,-4.18347 -14.2099,-4.53071 -2.98701,-3.87166 -6.913,-7.1126 -11.6398,-9.34253 -30.2941,-14.3362 -62.1355,-23.6232 -92.543,-32.491l-0.938977 -0.274016c-25.1835,-7.28623 -49.6406,-14.387 -70.4894,-23.7662 -17.5665,-7.90276 -32.3977,-17.4579 -42.3827,-30.437 -0.175984,-0.251575 -0.355512,-0.501969 -0.539764,-0.750001l-0.0188977 0.0141732 -0.0519685 -0.068504 -0.0590552 0.0448819c-26.778,-36.1099 -51.0048,-90.4501 -75.7087,-145.862 -21.7276,-48.737 -43.8118,-98.2702 -69.7914,-140.402 -1.24843,-2.55591 -2.85709,-4.98898 -4.8378,-7.22127l-0.090945 0.080315 -0.17126 -0.193701c-1.64646,-2.22284 -3.60709,-4.26733 -5.88071,-6.06497l-19.8484 25.1008 19.7504 -25.0004c-19.9654,-15.7866 -59.8182,-48.4241 -93.9709,-79.4481 -4.81181,-4.37126 -9.46064,-8.66339 -13.8555,-12.8102 22.8461,-8.06694 48.7607,-16.2118 62.7969,-12.561l-0.0153543 0.0507874c16.9536,4.98898 34.7445,-4.70906 39.7335,-21.6626 4.98898,-16.9536 -4.70906,-34.7445 -21.6626,-39.7335l-9.03544 30.6981 9.00001 -30.6248 -0.377953 -0.113386 0.00354331 -0.011811 -0.376772 -0.100394c-44.3244,-13.265 -109.593,-52.1658 -165.439,-93.2646 -53.3304,-39.2481 -96.417,-76.6524 -98.7816,-89.08 -0.0129921,-0.3 -0.0283465,-0.6 -0.0484252,-0.901182l-0.0496063 0.00354331c-0.0425197,-3.04016 12.541,-11.3043 30.3851,-21.4063 34.1693,-19.3417 82.6477,-35.8949 120.112,-45.1819 1.00748,-0.162992 2.01378,-0.372048 3.02008,-0.635434l-0.0271654 -0.102756c29.9386,-7.83662 47.5855,-24.3969 62.9859,-39.3154 0.655512,-0.546851 1.29449,-1.12441 1.91457,-1.73268l-22.4067 -22.8461 22.3748 22.7504 0.122835 -0.120473c7.27442,-7.13504 13.6453,-13.3807 17.7248,-14.6811 0.298819,-0.0295276 0.597638,-0.0637796 0.897638,-0.102756l-0.0129921 -0.105118 0.046063 -0.00708662 -0.0011811 -0.0129921c38.765,-4.85079 79.7056,59.5465 109.598,106.571l0.0555119 0.0874016c0.168898,0.291733 0.34252,0.581103 0.522048,0.869292l0.022441 -0.0141732 0.121654 0.19252 0.022441 -0.0141732c3.07087,4.91693 6.57402,10.4398 11.3303,17.7579 3.34843,5.15197 6.55512,9.95198 9.5941,14.2913 1.32756,2.22638 2.94921,4.32756 4.86496,6.24449l0.0649607 -0.0649607 0.164173 0.164173c1.52362,1.77992 3.26693,3.42048 5.22638,4.87796l19.1055 -25.6701 -19.0004 25.6252c15.9626,11.8807 36.5008,28.8827 58.3264,46.9524l0.222047 0.183071c0.372048,0.340158 0.753544,0.67441 1.14567,1.00039l0.0248032 -0.0307087 0.0484252 0.0401575 0.0614174 -0.0744095c46.5957,38.7059 101.823,84.5127 161.626,120.88 62.7071,38.1366 130.434,66.0615 199.171,66.0615 4.49646,0 9.62481,-0.194882 15.1323,-0.551575 4.02166,-0.261024 8.07757,-0.647245 12.0567,-1.13858 119.68,-0.979135 164.625,-115.473 200.83,-207.747l0.101575 -0.258662c6.53032,-16.7339 12.8764,-32.9681 19.2496,-47.0658 5.76378,-12.7524 11.3811,-23.4756 16.8732,-30.5941 25.0193,-32.5488 47.8489,-60.313 73.8898,-80.6197 24.3461,-18.9851 52.7658,-32.2559 90.9485,-38.1721l0.392126 -0.0413386c17.5512,-2.06221 30.1075,-17.9658 28.0453,-35.517l-0.0437008 0.00472441c-1.31811,-11.1378 -4.16693,-22.6843 -7.50945,-34.4859 13.0394,-0.857481 25.7906,-5.4626 37.6666,-11.9976 -0.38504,1.18937 -0.807875,2.39882 -1.2685,3.63307 -2.77677,6.07678 -3.6815,13.0713 -2.14725,20.1012 3.7689,17.2654 20.8229,28.2083 38.0882,24.4394l-0.00590552 -0.0295276c5.21103,-1.13976 10.3358,-2.69882 15.3284,-4.51418 -0.987402,2.94213 -1.96299,5.62678 -2.86772,8.11418 -14.3492,39.4666 -19.2508,52.9748 40.0595,105.087 0.597638,0.616536 1.22244,1.21536 1.87795,1.79173l0.0011811 -0.00236221 0.20315 0.183071 21.1134 -24.0473 -21 24 3.89646 3.42874c-14.7,5.65985 -28.3217,13.9441 -42.026,22.278 -11.5228,7.00749 -23.1307,14.0669 -33.7796,17.7567 -1.02402,0.233858 -2.04567,0.517323 -3.0626,0.857481 -16.7622,5.59843 -25.8118,23.7284 -20.2134,40.4906l30.352 -10.1386 -30.2504 10.1256c10.3736,31.0559 22.8272,57.0981 34.6937,81.9142 22.265,46.5638 42.1926,88.239 36.1961,151.078 -11.6599,121.312 -38.204,212.6 -80.2064,274.727 -38.974,57.6497 -92.2194,89.8489 -160.253,97.3902 -2.38819,0.080315 -4.80591,0.431103 -7.213,1.0748l0.0106299 0.0401575 -1.27205 0.340158c-2.47914,0.523229 -4.93583,1.34764 -7.32048,2.49803l13.8992 28.8236 -13.8756 -28.7504c-42.0319,20.2677 -69.3438,60.417 -98.0977,103.407 -0.542126,0.683859 -1.06063,1.39488 -1.55315,2.13307l0.0011811 0.0011811 -0.0011811 0 -0.0236221 0.0354331 -0.0248032 0.0366142 26.6504 17.713 -26.6256 -17.6256 -4.54843 6.84331c-30.4748,45.8989 -57.8906,87.1914 -111.539,90.2516 -17.6043,0.966142 -31.0914,16.0217 -30.1252,33.626 0.966142,17.6043 16.0217,31.0914 33.626,30.1252 85.6902,-4.88741 121.491,-58.8095 161.289,-118.752l4.49174 -6.75709 0.056693 0.0377953 0.0236221 -0.034252c0.477166,-0.715749 0.921261,-1.44331 1.33347,-2.18268 22.7339,-33.9898 44.2855,-65.7142 69.4583,-79.617 86.8879,-10.0099 154.879,-51.3142 204.633,-124.909 47.967,-70.9501 77.9847,-172.114 90.7064,-304.477 7.663,-80.3068 -15.8847,-129.554 -42.1961,-184.579 -7.213,-15.0862 -14.6634,-30.6638 -21.5658,-47.5099 6.71221,-3.67205 13.1539,-7.58977 19.5756,-11.4945 19.9205,-12.1158 39.5622,-24.0579 58.7835,-17.9634l-0.0413386 0.12874c16.8343,5.37874 34.8437,-3.90709 40.2225,-20.7414 2.08583,-6.52678 1.96417,-13.2295 0.0555119,-19.3063 -7.53898,-31.1339 -30.1394,-51.0083 -52.0701,-70.2638l0.0543308 -0.0614174 -0.0295276 -0.0259843 0.0177165 -0.0212599 -0.151181 -0.129921 0.0011811 -0.0011811c-0.686221,-0.604725 -1.3937,-1.17165 -2.11536,-1.70669 -26.4898,-23.2914 -25.3547,-26.4307 -22.1032,-35.3764 6.12638,-16.8484 14.7118,-40.4563 15.2752,-82.9961l0.122835 0.0011811c0.231496,-17.6705 -13.9075,-32.1851 -31.578,-32.4166 -2.51575,-0.0330709 -4.96772,0.226772 -7.32402,0.745276 -5.69528,1.11732 -11.3953,3.39449 -17.4756,6.31654 -1.62165,-13.4339 -5.14607,-26.6103 -9.83032,-41.4922l-30.4996 9.49961 30.5233 -9.60828c-5.30552,-16.8567 -23.2748,-26.2205 -40.1315,-20.915 -1.8874,0.594095 -3.68032,1.34764 -5.3693,2.24055 -5.6067,2.64685 -7.72796,5.10237 -10.4599,8.86536 -0.312992,0.411024 -0.614174,0.826772 -0.905906,1.25197l-0.0106299 -0.00708662c-0.483071,0.67441 -0.936615,1.35945 -1.35945,2.05748 -4.07953,5.4567 -14.8016,18.8764 -27.4654,26.224 -7.53308,4.37008 -17.576,4.00512 -28.0902,-14.1154l-27.6248 16.0004 27.678 -16.0595c-8.8689,-15.2858 -28.4516,-20.4874 -43.7374,-11.6185 -10.9417,6.34843 -16.715,18.1866 -15.861,30.0083 0.0318898,21.9921 6.94253,45.1689 13.6547,67.6772 1.04882,3.51851 2.09291,7.01693 3.08859,10.4445 -34.7422,9.42402 -63.1099,24.561 -88.4965,44.3587 -31.7221,24.7358 -57.4229,55.813 -85.1386,91.8709 -9.07796,11.7673 -17.074,26.6398 -24.6236,43.3429 -6.94371,15.3579 -13.6252,32.452 -20.4992,50.0658l-0.101575 0.258662c-29.2288,74.4934 -65.5347,167.019 -142.867,167.019 -2.22047,0 -4.3878,0.225591 -6.48071,0.656693 -2.41418,0.279921 -5.11181,0.519685 -8.03859,0.709843 -3.00591,0.194882 -6.73229,0.301181 -11.1331,0.301181 -55.3536,0 -112.231,-23.9079 -165.92,-56.5607 -56.5701,-34.402 -109.519,-78.3225 -154.187,-115.429l-20.3752 24.4996 20.4484 -24.6154c-0.427559,-0.355512 -0.862205,-0.698032 -1.30276,-1.02756l-0.211417 -0.174803c-20.4319,-16.9158 -39.724,-32.8855 -58.0855,-46.7138 -2.48032,-3.56693 -4.97953,-7.31103 -7.51182,-11.2075 -2.31614,-3.56221 -6.18426,-9.71812 -10.7268,-16.9937l-27.1252 16.8756 27.1441 -16.9465c-0.281103,-0.448819 -0.570473,-0.88819 -0.869292,-1.31929 -39.0969,-61.5024 -92.6576,-145.747 -171.719,-135.553l4.0004 31.6252 -4.09252 -31.7374c-1.15984,0.15 -2.29606,0.361418 -3.40748,0.628347 -23.1343,4.04055 -36.4748,17.1201 -51.776,32.126l-0.0011811 -0.0011811 -0.0956694 0.0921261 -0.0614174 -0.0625985c-0.522048,0.512599 -1.02284,1.03937 -1.50236,1.57795 -9.73938,9.42993 -20.7673,19.7599 -34.526,23.3965l-0.18189 0.0448819 -0.0259843 -0.0992127c-0.687402,0.179528 -1.36299,0.382677 -2.02795,0.603544 -42.0107,10.4126 -96.9072,29.2666 -136.428,51.6367 -38.4473,21.7654 -64.8355,49.0914 -62.6363,81.2138l0.0106299 -0.0011811 0.00590552 0.0578741 -0.0661418 0.00472441c0.209055,3.04725 0.837402,5.96339 1.82599,8.70001 10.1421,32.1721 61.3465,82.9595 123.104,128.41 28.826,21.2138 60.3201,41.9965 90.978,59.6315 -12.9378,4.65945 -23.7839,8.56536 -26.0587,8.56536 -17.6728,0 -32.0008,14.328 -32.0008,32.0008 0,7.72205 2.73544,14.8039 7.28977,20.3327 10.8095,14.6303 31.011,34.6772 53.7721,55.3536 32.4485,29.4768 72.1406,62.0611 94.33,79.7079 23.1862,37.8177 44.3941,85.3843 65.2607,132.191 26.1709,58.702 51.8363,116.267 82.767,157.942l25.6252 -19.0004 -25.6961 19.0713c0.298819,0.402756 0.605906,0.797245 0.921261,1.18228 17.2465,22.6229 40.4729,38.1142 67.1422,50.1118 24.1902,10.8827 51.1937,18.7228 78.991,26.7662l0.938977 0.274016c27.7229,8.08465 56.7532,16.552 83.0422,28.9925 3.72402,1.75748 7.61693,2.73071 11.4921,2.98937 2.31614,2.96575 5.19804,5.5689 8.60788,7.63347 15.4087,9.33426 29.5406,20.7366 41.302,35.3185 11.6079,14.3882 21.0402,32.0859 27.2977,54.2445l0.119291 0.557481 -0.0578741 0.0165354c0.0755906,0.272835 0.155906,0.542126 0.238583,0.811418 1.9004,8.6256 4.27796,16.4232 6.94607,23.8453 3.39449,9.43583 6.14882,15.9248 8.9315,22.3902l0.0448819 -0.0188977 0.00826772 0.0177165 -0.0696851 0.0295276c0.276378,0.641339 0.572835,1.26732 0.885827,1.8815 6.29174,14.7921 10.8839,26.8914 13.9075,36.7193 2.70236,8.79095 4.07481,15.2646 4.24134,19.8319 0.62126,17.6043 15.3969,31.3713 33.0012,30.75 17.6043,-0.62126 31.3713,-15.3969 30.75,-33.0012 -0.375591,-10.2791 -2.63858,-22.1669 -6.99331,-36.3319 -3.75118,-12.1984 -9.09095,-26.3634 -16.1811,-43.0252 -0.249213,-0.714567 -0.52441,-1.42559 -0.827953,-2.13071l-0.0248032 0.0106299c-3.09449,-7.19056 -6.02835,-14.0504 -7.67363,-18.6236 -1.77874,-4.95 -3.35079,-10.0536 -4.58386,-15.5291 -0.193701,-1.61929 -0.51378,-3.24449 -0.966142,-4.86378l-0.0933072 0.0259843c-8.80631,-31.4433 -22.3547,-56.7863 -39.15,-77.6068 -16.7351,-20.7484 -36.567,-36.8032 -58.0524,-49.8201zm656.349 -1024.71l0.00472441 -0.00236221 -24.5811 -17.6079 24.5764 17.6102z"/>
  <path class="fil1" d="M1579.6 512.909c-6.24331,0 -11.3752,5.12244 -11.3752,11.3669 0,6.11457 5.13189,11.3752 11.3752,11.3752 6.14174,0 11.3669,-5.26063 11.3669,-11.3752 0,-6.24449 -5.2252,-11.3669 -11.3669,-11.3669z"/>
  <path class="fil1" d="M1579.6 541.498c-9.57875,0 -17.3599,-7.77284 -17.3599,-17.2217 0,-9.57048 7.78111,-17.2228 17.3599,-17.2228 9.44056,0 17.2228,7.65237 17.2228,17.2228 0,9.57875 -7.78229,17.2217 -17.2228,17.2217z"/>
  <path class="fil2" d="M1579.6 559.508c-19.5461,0 -35.2311,-15.8138 -35.2311,-35.2311 0,-19.4079 15.6851,-35.2311 35.2311,-35.2311 19.4079,0 35.2323,15.8232 35.2323,35.2311 0,19.4173 -15.8244,35.2311 -35.2323,35.2311z"/>
  <polygon class="fil0" points="1058.75,1460.34 1217.25,1459.31 1217.5,1523.06 1059,1524.09 "/>
  <polygon class="fil0" points="1255.38,1478.08 1320.53,1645.33 1261.03,1668.33 1195.88,1501.08 "/>
  <path class="fil0" d="M1374.22 1674.74c17.465,2.55355 33.6969,-9.53505 36.2504,-27 2.55355,-17.465 -9.53505,-33.6969 -27,-36.2504l-77.9847 -11.563 0.00590552 -0.0377953c-10.5425,-1.5626 -20.6445,2.20748 -27.5729,9.28111l-43.9571 39.9378c-13.0476,11.8736 -13.9996,32.0776 -2.12599,45.1252 11.8736,13.0476 32.0776,13.9996 45.1252,2.12599l34.102 -30.9839 63.1571 9.36497z"/>
  <path class="fil0" d="M1179.38 1711.35c17.465,2.55355 33.6969,-9.53505 36.2504,-27 2.55355,-17.465 -9.53505,-33.6969 -27,-36.2504l-77.9847 -11.563 0.00590552 -0.0377953c-10.5425,-1.5626 -20.6445,2.20748 -27.5729,9.28111l-43.9571 39.9378c-13.0476,11.8736 -13.9996,32.0776 -2.12599,45.1252 11.8736,13.0476 32.0776,13.9996 45.1252,2.12599l34.102 -30.9839 63.1571 9.36497z"/>
  <path class="fil3" d="M1406.5 790.374c-5.31496,-16.8437 -23.2807,-26.1898 -40.1244,-20.8748 -16.8437,5.31496 -26.1898,23.2807 -20.8748,40.1244 0.307087,0.97441 113.74,340.296 -512,310.5 -17.6043,-0.827953 -32.5477,12.7713 -33.3756,30.3756 -0.827953,17.6043 12.7713,32.5477 30.3756,33.3756 718.257,34.2012 576.385,-392.276 575.999,-393.501z"/>
 </g>
 <rect class="fil4" width="2048" height="2048"/>
</svg>
